<mxfile host="app.diagrams.net" modified="2024-07-22T22:14:59.967Z" agent="Mozilla/5.0 (Windows NT 10.0; Win64; x64) AppleWebKit/537.36 (KHTML, like Gecko) Chrome/126.0.0.0 Safari/537.36" etag="xpt9lzZjephWOwhYKd3x" version="24.7.3" type="device">
  <diagram name="Page-1" id="J7nh5fy_b8afC5c3HDfw">
    <mxGraphModel dx="880" dy="460" grid="1" gridSize="10" guides="1" tooltips="1" connect="1" arrows="1" fold="1" page="1" pageScale="1" pageWidth="827" pageHeight="1169" math="0" shadow="0">
      <root>
        <mxCell id="0" />
        <mxCell id="1" parent="0" />
        <mxCell id="lJL1cCyXbmuSCGqdMN6N-1" value="" style="outlineConnect=0;dashed=0;verticalLabelPosition=bottom;verticalAlign=top;align=center;html=1;shape=mxgraph.aws3.ec2;fillColor=#F58534;gradientColor=none;" vertex="1" parent="1">
          <mxGeometry x="80" y="200" width="76.5" height="80" as="geometry" />
        </mxCell>
        <mxCell id="lJL1cCyXbmuSCGqdMN6N-2" value="" style="endArrow=classic;html=1;rounded=0;" edge="1" parent="1">
          <mxGeometry width="50" height="50" relative="1" as="geometry">
            <mxPoint x="160" y="240" as="sourcePoint" />
            <mxPoint x="238" y="241" as="targetPoint" />
          </mxGeometry>
        </mxCell>
        <mxCell id="lJL1cCyXbmuSCGqdMN6N-3" value="" style="image;sketch=0;aspect=fixed;html=1;points=[];align=center;fontSize=12;image=img/lib/mscae/Docker.svg;" vertex="1" parent="1">
          <mxGeometry x="240" y="200" width="85.37" height="70" as="geometry" />
        </mxCell>
        <mxCell id="lJL1cCyXbmuSCGqdMN6N-4" value="" style="endArrow=classic;html=1;rounded=0;" edge="1" parent="1">
          <mxGeometry width="50" height="50" relative="1" as="geometry">
            <mxPoint x="325" y="240" as="sourcePoint" />
            <mxPoint x="403" y="241" as="targetPoint" />
          </mxGeometry>
        </mxCell>
        <mxCell id="lJL1cCyXbmuSCGqdMN6N-5" value="" style="outlineConnect=0;dashed=0;verticalLabelPosition=bottom;verticalAlign=top;align=center;html=1;shape=mxgraph.aws3.ecr;fillColor=#F58534;gradientColor=none;" vertex="1" parent="1">
          <mxGeometry x="410" y="200" width="73" height="76" as="geometry" />
        </mxCell>
        <mxCell id="lJL1cCyXbmuSCGqdMN6N-6" value="" style="endArrow=classic;html=1;rounded=0;" edge="1" parent="1">
          <mxGeometry width="50" height="50" relative="1" as="geometry">
            <mxPoint x="492" y="241" as="sourcePoint" />
            <mxPoint x="570" y="242" as="targetPoint" />
          </mxGeometry>
        </mxCell>
        <mxCell id="lJL1cCyXbmuSCGqdMN6N-7" value="" style="outlineConnect=0;dashed=0;verticalLabelPosition=bottom;verticalAlign=top;align=center;html=1;shape=mxgraph.aws3.ecs;fillColor=#F58534;gradientColor=none;" vertex="1" parent="1">
          <mxGeometry x="580" y="200" width="72" height="72.5" as="geometry" />
        </mxCell>
        <mxCell id="lJL1cCyXbmuSCGqdMN6N-8" value="" style="endArrow=classic;html=1;rounded=0;" edge="1" parent="1">
          <mxGeometry width="50" height="50" relative="1" as="geometry">
            <mxPoint x="665" y="241" as="sourcePoint" />
            <mxPoint x="743" y="242" as="targetPoint" />
          </mxGeometry>
        </mxCell>
        <mxCell id="lJL1cCyXbmuSCGqdMN6N-9" value="" style="outlineConnect=0;dashed=0;verticalLabelPosition=bottom;verticalAlign=top;align=center;html=1;shape=mxgraph.aws3.application_load_balancer;fillColor=#F58534;gradientColor=none;" vertex="1" parent="1">
          <mxGeometry x="750" y="200" width="70" height="76" as="geometry" />
        </mxCell>
        <mxCell id="lJL1cCyXbmuSCGqdMN6N-10" value="Amazon EC2" style="text;html=1;align=center;verticalAlign=middle;whiteSpace=wrap;rounded=0;" vertex="1" parent="1">
          <mxGeometry x="88" y="280" width="60" height="30" as="geometry" />
        </mxCell>
        <mxCell id="lJL1cCyXbmuSCGqdMN6N-12" value="Amazon ECR" style="text;html=1;align=center;verticalAlign=middle;whiteSpace=wrap;rounded=0;" vertex="1" parent="1">
          <mxGeometry x="417" y="280" width="60" height="30" as="geometry" />
        </mxCell>
        <mxCell id="lJL1cCyXbmuSCGqdMN6N-14" value="Amazon ECS" style="text;html=1;align=center;verticalAlign=middle;whiteSpace=wrap;rounded=0;" vertex="1" parent="1">
          <mxGeometry x="586" y="276" width="60" height="30" as="geometry" />
        </mxCell>
        <mxCell id="lJL1cCyXbmuSCGqdMN6N-15" value="Application Load Balancer" style="text;html=1;align=center;verticalAlign=middle;whiteSpace=wrap;rounded=0;" vertex="1" parent="1">
          <mxGeometry x="750" y="280" width="90" height="30" as="geometry" />
        </mxCell>
        <mxCell id="lJL1cCyXbmuSCGqdMN6N-17" value="deploying a Dockerized application on AWS using EC2, ECR, ECS, Fargate, and an Application Load Balancer." style="text;html=1;align=center;verticalAlign=middle;whiteSpace=wrap;rounded=0;" vertex="1" parent="1">
          <mxGeometry x="192" y="80" width="460" height="40" as="geometry" />
        </mxCell>
      </root>
    </mxGraphModel>
  </diagram>
</mxfile>
